<svg width="24" height="24" viewBox="0 0 24 24" fill="none" xmlns="http://www.w3.org/2000/svg">
<path d="M11.334 3.54918C11.544 2.90418 12.456 2.90418 12.666 3.54918L14.2 8.27218C14.2458 8.41268 14.3349 8.53508 14.4546 8.62185C14.5742 8.70861 14.7182 8.75528 14.866 8.75518H19.832C20.51 8.75518 20.792 9.62318 20.243 10.0222L16.226 12.9402C16.1064 13.0271 16.0174 13.1497 15.9717 13.2904C15.9261 13.4311 15.9262 13.5826 15.972 13.7232L17.506 18.4462C17.716 19.0912 16.977 19.6262 16.429 19.2282L12.412 16.3102C12.2924 16.2233 12.1483 16.1765 12.0005 16.1765C11.8527 16.1765 11.7086 16.2233 11.589 16.3102L7.57 19.2282C7.022 19.6272 6.283 19.0912 6.493 18.4462L8.027 13.7232C8.0728 13.5826 8.07289 13.4311 8.02726 13.2904C7.98162 13.1497 7.89262 13.0271 7.773 12.9402L3.756 10.0222C3.207 9.62318 3.489 8.75518 4.167 8.75518H9.133C9.28078 8.75528 9.42481 8.70861 9.54444 8.62185C9.66408 8.53508 9.75319 8.41268 9.799 8.27218L11.334 3.54918Z" fill="#FFD700"/>
</svg>
