<svg width="22" height="24" viewBox="0 0 22 24" fill="none" xmlns="http://www.w3.org/2000/svg">
<path d="M2.74286 24C1.98857 24 1.34309 23.7317 0.8064 23.195C0.269714 22.6583 0.000914286 22.0123 0 21.2571V8.91428C0 8.48 0.0973712 8.06857 0.292114 7.68C0.486857 7.29143 0.7552 6.97143 1.09714 6.72L9.32571 0.548571C9.80571 0.182857 10.3543 0 10.9714 0C11.5886 0 12.1371 0.182857 12.6171 0.548571L20.8457 6.72C21.1886 6.97143 21.4574 7.29143 21.6521 7.68C21.8469 8.06857 21.9438 8.48 21.9429 8.91428V21.2571C21.9429 22.0114 21.6741 22.6574 21.1365 23.195C20.5989 23.7326 19.9534 24.0009 19.2 24H2.74286ZM8.91429 19.8857C9.09714 19.8857 9.25714 19.8171 9.39429 19.68C9.53143 19.5429 9.6 19.3829 9.6 19.2V14.4C10.1714 14.4 10.6574 14.2002 11.0578 13.8007C11.4583 13.4011 11.6581 12.9152 11.6571 12.3429V8.91428C11.6571 8.73143 11.5886 8.57143 11.4514 8.43428C11.3143 8.29714 11.1543 8.22857 10.9714 8.22857C10.7886 8.22857 10.6286 8.29714 10.4914 8.43428C10.3543 8.57143 10.2857 8.73143 10.2857 8.91428V12.3429H9.6V8.91428C9.6 8.73143 9.53143 8.57143 9.39429 8.43428C9.25714 8.29714 9.09714 8.22857 8.91429 8.22857C8.73143 8.22857 8.57143 8.29714 8.43428 8.43428C8.29714 8.57143 8.22857 8.73143 8.22857 8.91428V12.3429H7.54286V8.91428C7.54286 8.73143 7.47429 8.57143 7.33714 8.43428C7.2 8.29714 7.04 8.22857 6.85714 8.22857C6.67429 8.22857 6.51428 8.29714 6.37714 8.43428C6.24 8.57143 6.17143 8.73143 6.17143 8.91428V12.3429C6.17143 12.9143 6.37166 13.4002 6.77211 13.8007C7.17257 14.2011 7.65806 14.4009 8.22857 14.4V19.2C8.22857 19.3829 8.29714 19.5429 8.43428 19.68C8.57143 19.8171 8.73143 19.8857 8.91429 19.8857ZM14.4 19.8857C14.5829 19.8857 14.7429 19.8171 14.88 19.68C15.0171 19.5429 15.0857 19.3829 15.0857 19.2V9.12C15.0857 8.86857 15.0002 8.65737 14.8293 8.4864C14.6583 8.31543 14.4466 8.22948 14.1943 8.22857C13.5771 8.22857 13.1145 8.51428 12.8064 9.08571C12.4983 9.65714 12.3438 10.2857 12.3429 10.9714V13.7143C12.3429 14.08 12.5088 14.3374 12.8407 14.4864C13.1726 14.6354 13.4638 14.8352 13.7143 15.0857V19.2C13.7143 19.3829 13.7829 19.5429 13.92 19.68C14.0571 19.8171 14.2171 19.8857 14.4 19.8857Z" fill="#3F3F46"/>
</svg>
