<svg width="26" height="22" viewBox="0 0 26 22" fill="none" xmlns="http://www.w3.org/2000/svg">
<path d="M19.3529 9.94141C20.1017 9.94141 20.8199 10.2389 21.3494 10.7684C21.8789 11.2979 22.1764 12.0161 22.1764 12.7649C22.1764 13.5138 21.8789 14.232 21.3494 14.7615C20.8199 15.291 20.1017 15.5885 19.3529 15.5885C18.604 15.5885 17.8858 15.291 17.3563 14.7615C16.8268 14.232 16.5293 13.5138 16.5293 12.7649C16.5293 12.0161 16.8268 11.2979 17.3563 10.7684C17.8858 10.2389 18.604 9.94141 19.3529 9.94141ZM19.3529 11.3532C18.9784 11.3532 18.6194 11.5019 18.3546 11.7667C18.0898 12.0314 17.9411 12.3905 17.9411 12.7649C17.9411 13.1394 18.0898 13.4984 18.3546 13.7632C18.6194 14.028 18.9784 14.1767 19.3529 14.1767C19.7273 14.1767 20.0864 14.028 20.3511 13.7632C20.6159 13.4984 20.7646 13.1394 20.7646 12.7649C20.7646 12.3905 20.6159 12.0314 20.3511 11.7667C20.0864 11.5019 19.7273 11.3532 19.3529 11.3532ZM19.3529 16.2943C21.2376 16.2943 24.9999 17.2332 24.9999 19.1179V21.2355H13.7058V19.1179C13.7058 17.2332 17.4682 16.2943 19.3529 16.2943ZM19.3529 17.6355C17.2564 17.6355 15.047 18.6661 15.047 19.1179V19.8943H23.6588V19.1179C23.6588 18.6661 21.4493 17.6355 19.3529 17.6355Z" fill="#3F3F46"/>
<path fill-rule="evenodd" clip-rule="evenodd" d="M17.8399 0.956055C16.9351 0.956055 16.0673 1.31551 15.4274 1.95533C14.9675 2.41531 14.6524 2.99311 14.5116 3.6178H1.70581C1.2916 3.6178 0.955811 3.95359 0.955811 4.3678C0.955811 4.78202 1.2916 5.1178 1.70581 5.1178H14.5116C14.6524 5.74249 14.9675 6.32029 15.4274 6.78027C16.0673 7.4201 16.9351 7.77955 17.8399 7.77955C18.288 7.77955 18.7316 7.69131 19.1455 7.51985C19.5595 7.34839 19.9356 7.09708 20.2524 6.78027C20.5692 6.46346 20.8205 6.08736 20.992 5.67342C21.0666 5.49316 21.1255 5.30725 21.1682 5.1178H24.294C24.7083 5.1178 25.044 4.78202 25.044 4.3678C25.044 3.95359 24.7083 3.6178 24.294 3.6178H21.1682C21.1255 3.42836 21.0666 3.24245 20.992 3.06218C20.8205 2.64825 20.5692 2.27214 20.2524 1.95533C19.9356 1.63852 19.5595 1.38721 19.1455 1.21576C18.7316 1.0443 18.288 0.956055 17.8399 0.956055ZM16.4881 3.01599C16.8466 2.65747 17.3329 2.45605 17.8399 2.45605C18.091 2.45605 18.3396 2.5055 18.5715 2.60158C18.8035 2.69765 19.0142 2.83847 19.1917 3.01599C19.3692 3.19352 19.5101 3.40426 19.6061 3.63621C19.7022 3.86815 19.7517 4.11675 19.7517 4.3678C19.7517 4.61886 19.7022 4.86746 19.6061 5.0994C19.5101 5.33134 19.3693 5.54209 19.1917 5.71961C19.0142 5.89714 18.8035 6.03795 18.5715 6.13403C18.3396 6.2301 18.091 6.27955 17.8399 6.27955C17.3329 6.27955 16.8466 6.07814 16.4881 5.71961C16.1296 5.36109 15.9282 4.87483 15.9282 4.3678C15.9282 3.86078 16.1296 3.37451 16.4881 3.01599ZM6.5458 9.02311C5.64095 9.02311 4.77315 9.38256 4.13333 10.0224C3.67335 10.4824 3.35827 11.0602 3.21749 11.6849H1.70581C1.2916 11.6849 0.955811 12.0206 0.955811 12.4349C0.955811 12.8491 1.2916 13.1849 1.70581 13.1849H3.21749C3.35828 13.8095 3.67335 14.3873 4.13333 14.8473C4.77315 15.4872 5.64095 15.8466 6.5458 15.8466C7.45065 15.8466 8.31844 15.4872 8.95827 14.8473C9.41825 14.3873 9.73332 13.8095 9.8741 13.1849H11.3315C11.6243 12.6513 11.9673 12.1491 12.3542 11.6849H9.8741C9.73332 11.0602 9.41825 10.4824 8.95827 10.0224C8.31844 9.38256 7.45065 9.02311 6.5458 9.02311ZM10.3994 19.7519C10.514 20.2692 10.6713 20.7705 10.8672 21.2519H1.70581C1.2916 21.2519 0.955811 20.9161 0.955811 20.5019C0.955811 20.0877 1.2916 19.7519 1.70581 19.7519H10.3994ZM5.19399 11.083C5.55251 10.7245 6.03877 10.5231 6.5458 10.5231C7.05283 10.5231 7.53909 10.7245 7.89761 11.083C8.25613 11.4416 8.45755 11.9278 8.45755 12.4349C8.45755 12.9419 8.25613 13.4281 7.89761 13.7867C7.53909 14.1452 7.05283 14.3466 6.5458 14.3466C6.03877 14.3466 5.55251 14.1452 5.19399 13.7867C4.83546 13.4281 4.63405 12.9419 4.63405 12.4349C4.63405 11.9278 4.83546 11.4416 5.19399 11.083Z" fill="#3F3F46"/>
</svg>
