<svg width="24" height="23" viewBox="0 0 24 23" fill="none" xmlns="http://www.w3.org/2000/svg">
<path d="M18.3704 10.8989C19.1098 10.8989 19.819 11.1933 20.3419 11.7173C20.8647 12.2413 21.1585 12.952 21.1585 13.693C21.1585 14.434 20.8647 15.1447 20.3419 15.6687C19.819 16.1927 19.1098 16.487 18.3704 16.487C17.6309 16.487 16.9218 16.1927 16.3989 15.6687C15.876 15.1447 15.5823 14.434 15.5823 13.693C15.5823 12.952 15.876 12.2413 16.3989 11.7173C16.9218 11.1933 17.6309 10.8989 18.3704 10.8989ZM18.3704 12.296C18.0006 12.296 17.6461 12.4431 17.3846 12.7051C17.1232 12.9671 16.9763 13.3225 16.9763 13.693C16.9763 14.0635 17.1232 14.4188 17.3846 14.6808C17.6461 14.9428 18.0006 15.09 18.3704 15.09C18.7401 15.09 19.0947 14.9428 19.3561 14.6808C19.6175 14.4188 19.7644 14.0635 19.7644 13.693C19.7644 13.3225 19.6175 12.9671 19.3561 12.7051C19.0947 12.4431 18.7401 12.296 18.3704 12.296ZM18.3704 17.1856C20.2314 17.1856 23.9466 18.1146 23.9466 19.9796V22.0752H12.7942V19.9796C12.7942 18.1146 16.5093 17.1856 18.3704 17.1856ZM18.3704 18.5127C16.3002 18.5127 14.1185 19.5326 14.1185 19.9796V20.748H22.6222V19.9796C22.6222 19.5326 20.4405 18.5127 18.3704 18.5127Z" fill="#3F3F46"/>
<path fill-rule="evenodd" clip-rule="evenodd" d="M16.8214 0C15.9187 0 15.0534 0.359349 14.4156 0.998476C13.9575 1.45757 13.6438 2.03401 13.5034 2.65707H0.75C0.335786 2.65707 0 2.99286 0 3.40707C0 3.82129 0.335786 4.15707 0.75 4.15707H13.5034C13.6438 4.78014 13.9575 5.35657 14.4156 5.81567C15.0534 6.4548 15.9187 6.81415 16.8214 6.81415C17.2683 6.81415 17.7107 6.72594 18.1235 6.55458C18.5363 6.38323 18.9113 6.13212 19.2271 5.81567C19.5428 5.49923 19.7932 5.12363 19.9641 4.71038C20.0383 4.53084 20.0968 4.34572 20.1393 4.15707H23.2504C23.6646 4.15707 24.0004 3.82129 24.0004 3.40707C24.0004 2.99286 23.6646 2.65707 23.2504 2.65707H20.1393C20.0968 2.46843 20.0383 2.2833 19.9641 2.10377C19.7932 1.69051 19.5428 1.31492 19.2271 0.998476C18.9113 0.682025 18.5363 0.430916 18.1235 0.259566C17.7107 0.088214 17.2683 0 16.8214 0ZM15.4774 2.058C15.8341 1.70053 16.3176 1.5 16.8214 1.5C17.0708 1.5 17.3179 1.54924 17.5485 1.64495C17.779 1.74066 17.9886 1.88099 18.1653 2.058C18.3419 2.23502 18.4821 2.44525 18.5778 2.67674C18.6735 2.90824 18.7228 3.15641 18.7228 3.40707C18.7228 3.65774 18.6735 3.90591 18.5778 4.1374C18.4821 4.36889 18.3419 4.57913 18.1653 4.75615C17.9886 4.93316 17.779 5.07349 17.5485 5.1692C17.3179 5.26491 17.0708 5.31415 16.8214 5.31415C16.3176 5.31415 15.8341 5.11362 15.4774 4.75615C15.1207 4.39862 14.92 3.91338 14.92 3.40707C14.92 2.90077 15.1207 2.41552 15.4774 2.058ZM5.57116 8.05288C4.66854 8.05288 3.80321 8.41223 3.16545 9.05136C2.70733 9.51046 2.39358 10.0869 2.25319 10.71H0.75C0.335786 10.71 0 11.0457 0 11.46C0 11.8742 0.335786 12.21 0.75 12.21H2.25319C2.39358 12.833 2.70733 13.4095 3.16545 13.8686C3.80321 14.5077 4.66854 14.867 5.57116 14.867C6.47379 14.867 7.33912 14.5077 7.97688 13.8686C8.435 13.4095 8.74875 12.833 8.88914 12.21H10.0061V10.71H8.88914C8.74875 10.0869 8.435 9.51046 7.97688 9.05136C7.33912 8.41223 6.47379 8.05288 5.57116 8.05288ZM10.0061 18.7628V20.2628H0.75C0.335786 20.2628 0 19.9271 0 19.5128C0 19.0986 0.335786 18.7628 0.75 18.7628H10.0061ZM4.22724 10.1109C4.58395 9.75342 5.0674 9.55288 5.57116 9.55288C6.07493 9.55288 6.55838 9.75342 6.91509 10.1109C7.27185 10.4684 7.47256 10.9537 7.47256 11.46C7.47256 11.9663 7.27185 12.4515 6.91509 12.809C6.55838 13.1665 6.07493 13.367 5.57116 13.367C5.0674 13.367 4.58395 13.1665 4.22724 12.809C3.87048 12.4515 3.66977 11.9663 3.66977 11.46C3.66977 10.9537 3.87048 10.4684 4.22724 10.1109Z" fill="#3F3F46"/>
</svg>
