<svg width="60" height="60" viewBox="0 0 60 60" fill="none" xmlns="http://www.w3.org/2000/svg">
<rect width="60" height="60" rx="5" fill="#305CDE"/>
<path d="M39.3055 27.0612C40.2692 27.0638 41.2238 26.8753 42.1141 26.5065C43.0045 26.1376 43.8128 25.5959 44.4922 24.9125L51.5509 17.8588C52.1091 17.3005 52.1605 16.3921 51.6288 15.8063C51.4953 15.6592 51.3333 15.5407 51.1527 15.458C50.972 15.3753 50.7764 15.3302 50.5778 15.3254C50.3792 15.3206 50.1816 15.3562 49.9972 15.4301C49.8127 15.5039 49.6452 15.6145 49.5048 15.755L43.2134 22.0415C43.0022 22.2525 42.7158 22.371 42.4173 22.371C42.1187 22.371 41.8324 22.2525 41.6211 22.0415C41.182 21.6033 41.2058 20.8627 41.644 20.4245L47.9079 14.1609C48.0483 14.0205 48.1587 13.8531 48.2325 13.6687C48.3062 13.4844 48.3418 13.2869 48.337 13.0884C48.3322 12.8899 48.2871 12.6945 48.2046 12.5139C48.122 12.3333 48.0036 12.1714 47.8565 12.0379C47.5911 11.7972 47.245 11.6647 46.8867 11.6667C46.6856 11.6668 46.4864 11.7065 46.3007 11.7836C46.1149 11.8606 45.9461 11.9735 45.804 12.1159L39.5457 18.373C39.3344 18.584 39.0481 18.7025 38.7495 18.7025C38.451 18.7025 38.1646 18.584 37.9534 18.373C37.5152 17.9348 37.5381 17.1942 37.9763 16.756L44.2401 10.4943C44.3805 10.3539 44.491 10.1864 44.5647 10.002C44.6385 9.81769 44.6741 9.62028 44.6693 9.42177C44.6645 9.22327 44.6194 9.02781 44.5368 8.84723C44.4542 8.66666 44.3358 8.50473 44.1888 8.37127C43.9234 8.13052 43.5773 7.99805 43.2189 8.00002C42.8128 8.0005 42.4235 8.16204 42.1363 8.44919L35.0822 15.5029C34.3988 16.1825 33.857 16.991 33.4882 17.8814C33.1194 18.7718 32.9308 19.7266 32.9335 20.6903V21.4448C32.9336 21.6376 32.8957 21.8287 32.822 22.0069C32.7482 22.1851 32.64 22.347 32.5036 22.4833L29.2392 25.7485C29.2051 25.7826 29.1647 25.8096 29.1202 25.8281C29.0756 25.8465 29.0279 25.856 28.9797 25.856C28.9315 25.856 28.8838 25.8465 28.8393 25.8281C28.7948 25.8096 28.7544 25.7826 28.7203 25.7485L12.8356 9.8636C12.5615 9.58915 12.1897 9.43447 11.8018 9.43344C11.4139 9.43241 11.0413 9.58511 10.7657 9.8581C9.37689 11.234 8.63528 13.1764 8.63528 15.4745C8.62611 19.2695 10.6209 23.6328 13.8412 26.8485L21.6745 34.6814C22.7879 35.7924 24.2965 36.4164 25.8693 36.4167C26.3708 36.4169 26.8702 36.3528 27.3553 36.226C27.4771 36.1941 27.6025 36.1777 27.7284 36.1774C28.0966 36.1775 28.4512 36.3166 28.7212 36.567L29.7654 37.5313C30.0346 37.8064 30.1859 38.1758 30.187 38.5607V39.0686C30.1844 40.223 30.6381 41.3318 31.4493 42.1532L39.7043 50.5471L39.7125 50.5562C40.6287 51.4723 41.8714 51.9869 43.167 51.9868C44.4626 51.9867 45.7052 51.472 46.6213 50.5558C47.5374 49.6396 48.052 48.397 48.0519 47.1015C48.0518 45.8059 47.537 44.5634 46.6208 43.6473L34.2471 31.2742C34.213 31.2401 34.186 31.1997 34.1675 31.1552C34.1491 31.1107 34.1396 31.0629 34.1396 31.0148C34.1396 30.9666 34.1491 30.9189 34.1675 30.8743C34.186 30.8298 34.213 30.7894 34.2471 30.7553L37.5115 27.4911C37.6478 27.3548 37.8095 27.2466 37.9876 27.1729C38.1656 27.0991 38.3565 27.0611 38.5492 27.0612H39.3055Z" fill="white"/>
<path d="M25.8694 39.35C23.5211 39.3452 21.2694 38.4147 19.6027 36.7604L18.3322 35.4899C18.1947 35.3528 18.0084 35.2758 17.8143 35.2758C17.6201 35.2758 17.4338 35.3528 17.2963 35.4899L9.50431 43.2412C8.1155 44.63 7.61957 46.6742 8.3071 48.6762C8.34566 48.7889 8.39128 48.8991 8.44368 49.0062C9.36864 50.9 11.1636 52 13.1271 52C13.8024 52.0016 14.4713 51.8693 15.0951 51.6106C15.7188 51.3519 16.2851 50.9721 16.761 50.493L27.1527 40.0522C27.1965 40.0075 27.23 39.9539 27.2509 39.895C27.2718 39.8361 27.2796 39.7734 27.2737 39.7112V39.6873C27.2697 39.6302 27.2541 39.5744 27.2279 39.5235C27.2017 39.4725 27.1654 39.4274 27.1213 39.3908C27.0772 39.3542 27.0261 39.327 26.9712 39.3107C26.9162 39.2943 26.8586 39.2893 26.8016 39.2959C26.492 39.3303 26.1808 39.3483 25.8694 39.35Z" fill="white"/>
</svg>
