<svg width="26" height="24" viewBox="0 0 26 24" fill="none" xmlns="http://www.w3.org/2000/svg">
<path d="M24.294 12.4346H9.20877M3.88405 12.4346H1.70581M3.88405 12.4346C3.88405 11.7287 4.16448 11.0517 4.66366 10.5525C5.16283 10.0533 5.83986 9.7729 6.5458 9.7729C7.25174 9.7729 7.92876 10.0533 8.42794 10.5525C8.92711 11.0517 9.20755 11.7287 9.20755 12.4346C9.20755 13.1405 8.92711 13.8175 8.42794 14.3167C7.92876 14.8158 7.25174 15.0963 6.5458 15.0963C5.83986 15.0963 5.16283 14.8158 4.66366 14.3167C4.16448 13.8175 3.88405 13.1405 3.88405 12.4346ZM24.294 20.5014H17.2758M17.2758 20.5014C17.2758 21.2075 16.9947 21.8853 16.4954 22.3846C15.9961 22.8838 15.319 23.1643 14.6129 23.1643C13.9069 23.1643 13.2299 22.8827 12.7307 22.3835C12.2315 21.8844 11.9511 21.2073 11.9511 20.5014M17.2758 20.5014C17.2758 19.7953 16.9947 19.1188 16.4954 18.6195C15.9961 18.1202 15.319 17.8397 14.6129 17.8397C13.9069 17.8397 13.2299 18.1202 12.7307 18.6193C12.2315 19.1185 11.9511 19.7955 11.9511 20.5014M11.9511 20.5014H1.70581M24.294 4.36774H20.5029M15.1782 4.36774H1.70581M15.1782 4.36774C15.1782 3.66181 15.4586 2.9848 15.9578 2.48564C16.457 1.98648 17.134 1.70605 17.8399 1.70605C18.1895 1.70605 18.5356 1.7749 18.8585 1.90866C19.1815 2.04243 19.4749 2.23848 19.7221 2.48564C19.9692 2.7328 20.1653 3.02622 20.2991 3.34915C20.4328 3.67208 20.5017 4.0182 20.5017 4.36774C20.5017 4.71727 20.4328 5.06339 20.2991 5.38632C20.1653 5.70925 19.9692 6.00267 19.7221 6.24983C19.4749 6.49699 19.1815 6.69305 18.8585 6.82681C18.5356 6.96057 18.1895 7.02942 17.8399 7.02942C17.134 7.02942 16.457 6.74899 15.9578 6.24983C15.4586 5.75067 15.1782 5.07366 15.1782 4.36774Z" stroke="#3F3F46" stroke-width="1.5" stroke-miterlimit="10" stroke-linecap="round"/>
<ellipse cx="17.7059" cy="4.52951" rx="2.82353" ry="2.82346" fill="#3F3F46"/>
<ellipse cx="6.41166" cy="12.9997" rx="2.82353" ry="2.82346" fill="#3F3F46"/>
<ellipse cx="14.8824" cy="20.529" rx="2.82353" ry="2.82346" fill="#3F3F46"/>
</svg>
