<svg width="26" height="24" viewBox="0 0 26 24" fill="none" xmlns="http://www.w3.org/2000/svg">
<path d="M24.3005 12.4347H9.20715M3.87959 12.4347H1.7002M3.87959 12.4347C3.87959 11.7284 4.16018 11.051 4.65962 10.5516C5.15906 10.0521 5.83644 9.77154 6.54276 9.77154C7.24907 9.77154 7.92646 10.0521 8.4259 10.5516C8.92534 11.051 9.20592 11.7284 9.20592 12.4347C9.20592 13.141 8.92534 13.8184 8.4259 14.3178C7.92646 14.8173 7.24907 15.0979 6.54276 15.0979C5.83644 15.0979 5.15906 14.8173 4.65962 14.3178C4.16018 13.8184 3.87959 13.141 3.87959 12.4347ZM24.3005 20.5061H17.2785M17.2785 20.5061C17.2785 21.2125 16.9972 21.8907 16.4977 22.3902C15.9981 22.8898 15.3206 23.1704 14.6141 23.1704C13.9078 23.1704 13.2304 22.8886 12.731 22.3892C12.2315 21.8898 11.9509 21.2124 11.9509 20.5061M17.2785 20.5061C17.2785 19.7996 16.9972 19.1226 16.4977 18.6231C15.9981 18.1235 15.3206 17.8429 14.6141 17.8429C13.9078 17.8429 13.2304 18.1235 12.731 18.6229C12.2315 19.1224 11.9509 19.7997 11.9509 20.5061M11.9509 20.5061H1.7002M24.3005 4.36336H20.5073M15.1797 4.36336H1.7002M15.1797 4.36336C15.1797 3.65705 15.4603 2.97966 15.9597 2.48022C16.4592 1.98078 17.1366 1.7002 17.8429 1.7002C18.1926 1.7002 18.5389 1.76908 18.862 1.90292C19.1851 2.03675 19.4787 2.23292 19.726 2.48022C19.9733 2.72752 20.1695 3.0211 20.3033 3.34421C20.4372 3.66732 20.5061 4.01363 20.5061 4.36336C20.5061 4.71309 20.4372 5.0594 20.3033 5.38251C20.1695 5.70562 19.9733 5.99921 19.726 6.2465C19.4787 6.4938 19.1851 6.68997 18.862 6.82381C18.5389 6.95764 18.1926 7.02653 17.8429 7.02653C17.1366 7.02653 16.4592 6.74594 15.9597 6.2465C15.4603 5.74706 15.1797 5.06968 15.1797 4.36336Z" stroke="#3F3F46" stroke-width="1.5" stroke-miterlimit="10" stroke-linecap="round"/>
</svg>
