<svg width="24" height="24" viewBox="0 0 24 24" fill="none" xmlns="http://www.w3.org/2000/svg">
<path d="M3.77289 24C3.0186 24 2.37311 23.7317 1.83643 23.195C1.29974 22.6583 1.03094 22.0123 1.03003 21.2571V8.91428C1.03003 8.48 1.1274 8.06857 1.32214 7.68C1.51689 7.29143 1.78523 6.97143 2.12717 6.72L10.3557 0.548571C10.8357 0.182857 11.3843 0 12.0015 0C12.6186 0 13.1672 0.182857 13.6472 0.548571L21.8757 6.72C22.2186 6.97143 22.4874 7.29143 22.6821 7.68C22.8769 8.06857 22.9738 8.48 22.9729 8.91428V21.2571C22.9729 22.0114 22.7041 22.6574 22.1665 23.195C21.6289 23.7326 20.9834 24.0009 20.23 24H3.77289ZM3.77289 21.2571H20.23V8.91428L12.0015 2.74286L3.77289 8.91428V21.2571ZM9.94431 19.8857C10.1272 19.8857 10.2872 19.8171 10.4243 19.68C10.5615 19.5429 10.63 19.3829 10.63 19.2V14.4C11.2015 14.4 11.6874 14.2002 12.0879 13.8007C12.4883 13.4011 12.6881 12.9152 12.6872 12.3429V8.91428C12.6872 8.73143 12.6186 8.57143 12.4815 8.43428C12.3443 8.29714 12.1843 8.22857 12.0015 8.22857C11.8186 8.22857 11.6586 8.29714 11.5215 8.43428C11.3843 8.57143 11.3157 8.73143 11.3157 8.91428V12.3429H10.63V8.91428C10.63 8.73143 10.5615 8.57143 10.4243 8.43428C10.2872 8.29714 10.1272 8.22857 9.94431 8.22857C9.76146 8.22857 9.60146 8.29714 9.46431 8.43428C9.32717 8.57143 9.2586 8.73143 9.2586 8.91428V12.3429H8.57289V8.91428C8.57289 8.73143 8.50431 8.57143 8.36717 8.43428C8.23003 8.29714 8.07003 8.22857 7.88717 8.22857C7.70431 8.22857 7.54431 8.29714 7.40717 8.43428C7.27003 8.57143 7.20146 8.73143 7.20146 8.91428V12.3429C7.20146 12.9143 7.40169 13.4002 7.80214 13.8007C8.2026 14.2011 8.68809 14.4009 9.2586 14.4V19.2C9.2586 19.3829 9.32717 19.5429 9.46431 19.68C9.60146 19.8171 9.76146 19.8857 9.94431 19.8857ZM15.43 19.8857C15.6129 19.8857 15.7729 19.8171 15.91 19.68C16.0472 19.5429 16.1157 19.3829 16.1157 19.2V9.12C16.1157 8.86857 16.0303 8.65737 15.8593 8.4864C15.6883 8.31543 15.4767 8.22948 15.2243 8.22857C14.6072 8.22857 14.1445 8.51428 13.8364 9.08571C13.5283 9.65714 13.3738 10.2857 13.3729 10.9714V13.7143C13.3729 14.08 13.5388 14.3374 13.8707 14.4864C14.2026 14.6354 14.4938 14.8352 14.7443 15.0857V19.2C14.7443 19.3829 14.8129 19.5429 14.95 19.68C15.0872 19.8171 15.2472 19.8857 15.43 19.8857Z" fill="#3F3F46"/>
</svg>
