<svg width="24" height="24" viewBox="0 0 24 24" fill="none" xmlns="http://www.w3.org/2000/svg">
<path d="M12.0006 0C14.8413 0 17.5655 1.12843 19.5742 3.13706C21.5828 5.14569 22.7112 7.86997 22.7112 10.7106C22.7112 14.3689 20.7167 17.3631 18.615 19.5111C17.565 20.5728 16.4193 21.5352 15.1924 22.3863L14.6854 22.7315L14.4474 22.8897L13.9988 23.1754L13.5989 23.4193L13.1038 23.7073C12.7678 23.8991 12.3876 24 12.0006 24C11.6137 24 11.2335 23.8991 10.8974 23.7073L10.4024 23.4193L9.78354 23.0385L9.55505 22.8897L9.06712 22.5649C7.74357 21.6693 6.51075 20.6466 5.38625 19.5111C3.28459 17.3619 1.29004 14.3689 1.29004 10.7106C1.29004 7.86997 2.41847 5.14569 4.4271 3.13706C6.43573 1.12843 9.16001 0 12.0006 0ZM12.0006 7.1404C11.5318 7.1404 11.0675 7.23274 10.6344 7.41216C10.2012 7.59158 9.80765 7.85456 9.47612 8.18609C9.1446 8.51761 8.88162 8.91119 8.7022 9.34434C8.52278 9.7775 8.43044 10.2418 8.43044 10.7106C8.43044 11.1794 8.52278 11.6437 8.7022 12.0769C8.88162 12.51 9.1446 12.9036 9.47612 13.2351C9.80765 13.5666 10.2012 13.8296 10.6344 14.009C11.0675 14.1885 11.5318 14.2808 12.0006 14.2808C12.9475 14.2808 13.8556 13.9047 14.5251 13.2351C15.1947 12.5656 15.5708 11.6575 15.5708 10.7106C15.5708 9.76372 15.1947 8.85563 14.5251 8.18609C13.8556 7.51654 12.9475 7.1404 12.0006 7.1404Z" fill="#3F3F46"/>
</svg>
