<svg width="24" height="24" viewBox="0 0 24 24" fill="none" xmlns="http://www.w3.org/2000/svg">
<path fill-rule="evenodd" clip-rule="evenodd" d="M12.0006 0C14.8413 0 17.5655 1.12843 19.5742 3.13706C21.5828 5.14569 22.7112 7.86997 22.7112 10.7106C22.7112 14.3689 20.7167 17.3631 18.615 19.5111C17.565 20.5728 16.4193 21.5352 15.1924 22.3863L14.6854 22.7315L14.4474 22.8897L13.9988 23.1754L13.5989 23.4193L13.1038 23.7073C12.7678 23.8991 12.3876 24 12.0006 24C11.6137 24 11.2335 23.8991 10.8974 23.7073L10.4024 23.4193L9.78354 23.0385L9.55505 22.8897L9.06712 22.5649C7.74357 21.6693 6.51075 20.6466 5.38625 19.5111C3.28459 17.3619 1.29004 14.3689 1.29004 10.7106C1.29004 7.86997 2.41847 5.14569 4.4271 3.13706C6.43573 1.12843 9.16001 0 12.0006 0ZM12.0006 2.38013C9.79126 2.38013 7.67237 3.2578 6.11011 4.82007C4.54784 6.38233 3.67017 8.50122 3.67017 10.7106C3.67017 13.4739 5.18394 15.8993 7.08685 17.8462C7.90506 18.6745 8.78943 19.4347 9.73118 20.1193L10.2762 20.5072C10.4524 20.6302 10.6217 20.7444 10.7844 20.85L11.2485 21.1475L11.6567 21.3962L12.0006 21.5973L12.5421 21.2772L12.9789 21.0035C13.2113 20.8559 13.4601 20.6905 13.725 20.5072L14.2701 20.1193C15.2118 19.4347 16.0962 18.6745 16.9144 17.8462C18.8173 15.9005 20.3311 13.4739 20.3311 10.7106C20.3311 8.50122 19.4534 6.38233 17.8912 4.82007C16.3289 3.2578 14.21 2.38013 12.0006 2.38013ZM12.0006 5.95033C13.2631 5.95033 14.4739 6.45186 15.3667 7.34458C16.2594 8.2373 16.7609 9.4481 16.7609 10.7106C16.7609 11.9731 16.2594 13.1839 15.3667 14.0766C14.4739 14.9693 13.2631 15.4709 12.0006 15.4709C10.7381 15.4709 9.52734 14.9693 8.63462 14.0766C7.7419 13.1839 7.24037 11.9731 7.24037 10.7106C7.24037 9.4481 7.7419 8.2373 8.63462 7.34458C9.52734 6.45186 10.7381 5.95033 12.0006 5.95033ZM12.0006 8.33047C11.3694 8.33047 10.764 8.58123 10.3176 9.02759C9.87127 9.47395 9.6205 10.0793 9.6205 10.7106C9.6205 11.3418 9.87127 11.9472 10.3176 12.3936C10.764 12.84 11.3694 13.0907 12.0006 13.0907C12.6319 13.0907 13.2373 12.84 13.6836 12.3936C14.13 11.9472 14.3808 11.3418 14.3808 10.7106C14.3808 10.0793 14.13 9.47395 13.6836 9.02759C13.2373 8.58123 12.6319 8.33047 12.0006 8.33047Z" fill="#3F3F46"/>
</svg>
