<svg width="24" height="24" viewBox="0 0 24 24" fill="none" xmlns="http://www.w3.org/2000/svg">
<path d="M19.0501 21.9001L10.3501 13.1501C9.83343 13.2668 9.33776 13.4251 8.8631 13.6251C8.38843 13.8251 7.94243 14.0668 7.52509 14.3501C7.17509 14.5834 6.78776 14.7044 6.36309 14.7131C5.93843 14.7218 5.5841 14.5758 5.3001 14.2751C5.0001 13.9751 4.86276 13.6124 4.88809 13.1871C4.91343 12.7618 5.09243 12.4244 5.4251 12.1751C5.80843 11.8918 6.21276 11.6334 6.63809 11.4001C7.06343 11.1668 7.50076 10.9501 7.95009 10.7501L5.70009 8.5001C5.26676 8.73343 4.8461 8.97943 4.4381 9.2381C4.0301 9.49676 3.6341 9.77576 3.2501 10.0751C2.91676 10.3418 2.53776 10.4751 2.1131 10.4751C1.68843 10.4751 1.3341 10.3251 1.0501 10.0251C0.750095 9.7251 0.608428 9.36676 0.625095 8.9501C0.641762 8.53343 0.816762 8.19176 1.1501 7.9251C1.51676 7.6251 1.89176 7.33776 2.2751 7.0631C2.65843 6.78843 3.06676 6.5341 3.5001 6.3001L2.1001 4.9001C1.91676 4.71676 1.8251 4.48343 1.8251 4.2001C1.8251 3.91676 1.91676 3.68343 2.1001 3.5001C2.28343 3.31676 2.51676 3.2251 2.8001 3.2251C3.08343 3.2251 3.31676 3.31676 3.5001 3.5001L20.4751 20.4751C20.6751 20.6751 20.7751 20.9128 20.7751 21.1881C20.7751 21.4634 20.6751 21.7008 20.4751 21.9001C20.2751 22.0834 20.0378 22.1794 19.7631 22.1881C19.4884 22.1968 19.2508 22.1008 19.0501 21.9001ZM12.0001 21.0001C11.3001 21.0001 10.7084 20.7544 10.2251 20.2631C9.74176 19.7718 9.5001 19.1841 9.5001 18.5001C9.5001 17.8001 9.74176 17.2084 10.2251 16.7251C10.7084 16.2418 11.3001 16.0001 12.0001 16.0001C12.7001 16.0001 13.2918 16.2418 13.7751 16.7251C14.2584 17.2084 14.5001 17.8001 14.5001 18.5001C14.5001 19.1834 14.2584 19.7711 13.7751 20.2631C13.2918 20.7551 12.7001 21.0008 12.0001 21.0001ZM18.8251 14.1251C18.5584 14.3918 18.2461 14.5211 17.8881 14.5131C17.5301 14.5051 17.2174 14.3674 16.9501 14.1001L16.7001 13.8501L16.4501 13.6001L14.0501 11.2001C13.8334 10.9834 13.7918 10.7584 13.9251 10.5251C14.0584 10.2918 14.2918 10.2168 14.6251 10.3001C15.3751 10.4834 16.0874 10.7418 16.7621 11.0751C17.4368 11.4084 18.0661 11.8001 18.6501 12.2501C18.9501 12.4834 19.1211 12.7878 19.1631 13.1631C19.2051 13.5384 19.0924 13.8591 18.8251 14.1251ZM22.9501 10.0251C22.6668 10.3251 22.3168 10.4791 21.9001 10.4871C21.4834 10.4951 21.1084 10.3661 20.7751 10.1001C19.5751 9.11676 18.2294 8.35443 16.7381 7.8131C15.2468 7.27176 13.6674 7.00076 12.0001 7.0001C11.6501 7.0001 11.3128 7.01276 10.9881 7.0381C10.6634 7.06343 10.3341 7.10076 10.0001 7.1501C9.58343 7.21676 9.20843 7.12943 8.8751 6.8881C8.54176 6.64676 8.34176 6.31743 8.27509 5.9001C8.20843 5.48276 8.3001 5.10776 8.5501 4.7751C8.8001 4.44243 9.13343 4.24243 9.5501 4.1751C9.9501 4.10843 10.3544 4.06276 10.7631 4.0381C11.1718 4.01343 11.5841 4.00076 12.0001 4.0001C14.0834 4.0001 16.0461 4.3461 17.8881 5.0381C19.7301 5.7301 21.3841 6.6841 22.8501 7.9001C23.1834 8.18343 23.3584 8.53343 23.3751 8.9501C23.3918 9.36676 23.2501 9.7251 22.9501 10.0251Z" fill="#3F3F46"/>
</svg>
