<svg width="24" height="24" viewBox="0 0 24 24" fill="none" xmlns="http://www.w3.org/2000/svg">
<path d="M9.75092 6.72281C12.2472 4.21308 18.4892 8.60399 9.75092 14.2505C1.01261 8.60399 7.25469 4.21458 9.75092 6.72281Z" fill="#3F3F46"/>
<path d="M19.5018 9.75009C19.5052 11.8246 18.8438 13.8455 17.6147 15.5166C17.6747 15.5606 17.7322 15.6096 17.7872 15.6636L23.5627 21.4392C23.8442 21.7205 24.0024 22.1021 24.0026 22.5C24.0027 22.8979 23.8447 23.2796 23.5635 23.5611C23.2822 23.8426 22.9006 24.0008 22.5026 24.001C22.1047 24.0011 21.723 23.8432 21.4415 23.5619L15.666 17.7863C15.6117 17.7327 15.5615 17.6751 15.516 17.6138H15.519C13.7515 18.9105 11.5987 19.5739 9.40795 19.4968C7.2172 19.4197 5.11634 18.6066 3.44444 17.1889C1.77253 15.7711 0.627122 13.8313 0.193072 11.6826C-0.240977 9.53393 0.0616558 7.30165 1.05213 5.34608C2.0426 3.3905 3.66313 1.82572 5.65216 0.904273C7.6412 -0.0171701 9.8827 -0.241513 12.0149 0.267451C14.1471 0.776415 16.0456 1.98899 17.404 3.70948C18.7624 5.42997 19.5014 7.55799 19.5018 9.75009ZM9.75092 18.0009C10.8344 18.0009 11.9073 17.7875 12.9084 17.3728C13.9094 16.9582 14.8189 16.3504 15.5851 15.5843C16.3513 14.8181 16.959 13.9086 17.3736 12.9075C17.7883 11.9065 18.0017 10.8336 18.0017 9.75009C18.0017 8.66659 17.7883 7.59369 17.3736 6.59266C16.959 5.59163 16.3513 4.68207 15.5851 3.91592C14.8189 3.14976 13.9094 2.54202 12.9084 2.12738C11.9073 1.71274 10.8344 1.49932 9.75092 1.49932C7.56268 1.49932 5.46407 2.3686 3.91675 3.91592C2.36943 5.46324 1.50015 7.56185 1.50015 9.75009C1.50015 11.9383 2.36943 14.0369 3.91675 15.5843C5.46407 17.1316 7.56268 18.0009 9.75092 18.0009Z" fill="#3F3F46"/>
</svg>
