<svg width="24" height="24" viewBox="0 0 24 24" fill="none" xmlns="http://www.w3.org/2000/svg">
<path d="M9.74988 19.4998C11.8246 19.5034 13.846 18.8421 15.5173 17.6128H15.5158C15.5598 17.6728 15.6088 17.7303 15.6628 17.7853L21.4377 23.5602C21.719 23.8417 22.1005 23.9999 22.4984 24C22.8963 24.0001 23.278 23.8422 23.5595 23.561C23.8409 23.2797 23.9991 22.8981 23.9993 22.5002C23.9994 22.1023 23.8415 21.7207 23.5602 21.4392L17.7853 15.6643C17.7317 15.61 17.674 15.5598 17.6128 15.5143C18.8415 13.8438 19.5028 11.8236 19.4998 9.74988C19.4998 7.16405 18.4725 4.68413 16.6441 2.85567C14.8156 1.02722 12.3357 0 9.74988 0C7.16405 0 4.68413 1.02722 2.85567 2.85567C1.02722 4.68413 0 7.16405 0 9.74988C0 12.3357 1.02722 14.8156 2.85567 16.6441C4.68413 18.4725 7.16405 19.4998 9.74988 19.4998ZM9.74988 6.72291C12.2458 4.21345 18.4873 8.60389 9.74988 14.2498C1.01249 8.60389 7.25391 4.21495 9.74988 6.72291Z" fill="#3F3F46"/>
</svg>
