<svg width="24" height="24" viewBox="0 0 24 24" fill="none" xmlns="http://www.w3.org/2000/svg">
<path d="M11.8682 3.48375C12.0782 2.83875 12.9902 2.83875 13.2002 3.48375L14.7342 8.20675C14.78 8.34725 14.8691 8.46965 14.9887 8.55642C15.1084 8.64318 15.2524 8.68985 15.4002 8.68975H20.3662C21.0442 8.68975 21.3262 9.55775 20.7772 9.95675L16.7602 12.8747C16.6406 12.9617 16.5516 13.0843 16.5059 13.225C16.4603 13.3656 16.4604 13.5171 16.5062 13.6577L18.0402 18.3807C18.2502 19.0257 17.5112 19.5608 16.9632 19.1628L12.9462 16.2447C12.8266 16.1578 12.6825 16.111 12.5347 16.111C12.3868 16.111 12.2428 16.1578 12.1232 16.2447L8.10418 19.1628C7.55618 19.5618 6.81718 19.0257 7.02718 18.3807L8.56118 13.6577C8.60698 13.5171 8.60707 13.3656 8.56144 13.225C8.5158 13.0843 8.4268 12.9617 8.30718 12.8747L4.29018 9.95675C3.74118 9.55775 4.02318 8.68975 4.70118 8.68975H9.66718C9.81496 8.68985 9.95899 8.64318 10.0786 8.55642C10.1983 8.46965 10.2874 8.34725 10.3332 8.20675L11.8682 3.48375Z" fill="#D8D9DB"/>
<path fill-rule="evenodd" clip-rule="evenodd" d="M12.5342 3C12.2537 3 11.9732 3.16125 11.8682 3.48375L10.3332 8.20675C10.2874 8.34726 10.1983 8.46966 10.0786 8.55642C9.95898 8.64318 9.81496 8.68986 9.66717 8.68975H4.70117C4.02317 8.68975 3.74117 9.55775 4.29017 9.95675L8.30717 12.8748C8.42679 12.9617 8.5158 13.0843 8.56143 13.225C8.60706 13.3656 8.60697 13.5171 8.56117 13.6578L7.02717 18.3808C6.81717 19.0258 7.55617 19.5618 8.10417 19.1628L12.1232 16.2448C12.2426 16.1579 12.3865 16.1111 12.5342 16.111V3Z" fill="#FFD700"/>
</svg>
