<svg width="26" height="24" viewBox="0 0 26 24" fill="none" xmlns="http://www.w3.org/2000/svg">
<rect x="1" width="24" height="24" fill="white"/>
<path d="M12.6448 0.828752C12.6689 0.753548 12.7164 0.687957 12.7802 0.641426C12.844 0.594895 12.921 0.569824 13 0.569824C13.079 0.569824 13.156 0.594895 13.2198 0.641426C13.2836 0.687957 13.3311 0.753548 13.3552 0.828752L15.9315 8.76039C15.9558 8.83546 16.0032 8.9009 16.0671 8.94729C16.1309 8.99369 16.2078 9.01865 16.2867 9.01861H24.6273C24.706 9.0187 24.7827 9.04368 24.8463 9.08997C24.91 9.13626 24.9574 9.2015 24.9817 9.27635C25.006 9.3512 25.0061 9.43183 24.9819 9.50671C24.9576 9.58159 24.9103 9.64688 24.8467 9.69326L18.1002 14.5964C18.0362 14.6428 17.9886 14.7082 17.9642 14.7833C17.9398 14.8584 17.9399 14.9393 17.9644 15.0143L20.5406 22.9445C20.5649 23.0193 20.5649 23.0999 20.5407 23.1748C20.5164 23.2496 20.4691 23.3149 20.4055 23.3613C20.3419 23.4076 20.2653 23.4327 20.1867 23.4329C20.108 23.4331 20.0312 23.4084 19.9674 23.3624L13.2194 18.4593C13.1556 18.4129 13.0788 18.3879 13 18.3879C12.9212 18.3879 12.8444 18.4129 12.7806 18.4593L6.03407 23.3624C5.97028 23.409 5.89333 23.4342 5.81432 23.4343C5.7353 23.4344 5.65829 23.4094 5.59438 23.363C5.53048 23.3165 5.48298 23.2509 5.45872 23.1757C5.43447 23.1005 5.43472 23.0195 5.45942 22.9445L8.03564 15.0129C8.06029 14.9379 8.06056 14.8571 8.03643 14.7821C8.0123 14.707 7.96499 14.6415 7.90131 14.5949L1.1533 9.69475C1.0897 9.64838 1.0424 9.58308 1.01815 9.5082C0.993901 9.43332 0.993952 9.35269 1.01829 9.27784C1.04264 9.20299 1.09002 9.13776 1.15368 9.09146C1.21734 9.04517 1.294 9.02019 1.37271 9.0201H9.71331C9.79222 9.02015 9.86911 8.99518 9.93294 8.94878C9.99677 8.90239 10.0442 8.83695 10.0686 8.76188L12.6448 0.828752Z" stroke="#3F3F46"/>
</svg>
