<svg width="24" height="24" viewBox="0 0 24 24" fill="none" xmlns="http://www.w3.org/2000/svg">
<path fill-rule="evenodd" clip-rule="evenodd" d="M23.292 11.496L12.492 0.696001C12.042 0.249696 11.4338 -0.000504683 10.8 7.64329e-07H2.4C1.76348 7.64329e-07 1.15303 0.252857 0.702945 0.702945C0.252857 1.15303 7.52752e-07 1.76348 7.52752e-07 2.4V10.8C-0.000250064 11.1167 0.0621803 11.4303 0.183694 11.7228C0.305206 12.0152 0.483399 12.2807 0.708001 12.504L11.508 23.304C11.958 23.7503 12.5662 24.0005 13.2 24C13.8355 23.9973 14.444 23.7427 14.892 23.292L23.292 14.892C23.7427 14.444 23.9973 13.8355 24 13.2C24.0002 12.8833 23.9378 12.5697 23.8163 12.2772C23.6948 11.9848 23.5166 11.7193 23.292 11.496Z" fill="#3F3F46"/>
<path d="M7.2 5.4C7.2 6.39411 6.39411 7.2 5.4 7.2C4.40589 7.2 3.6 6.39411 3.6 5.4C3.6 4.40589 4.40589 3.6 5.4 3.6C6.39411 3.6 7.2 4.40589 7.2 5.4Z" fill="white"/>
</svg>
