<svg width="24" height="25" viewBox="0 0 24 25" fill="none" xmlns="http://www.w3.org/2000/svg">
<mask id="path-1-outside-1_182_935" maskUnits="userSpaceOnUse" x="13.0747" y="13.769" width="11" height="11" fill="black">
<rect fill="white" x="13.0747" y="13.769" width="11" height="11"/>
<path d="M23.0333 19.1906L18.8794 15.0367C18.7063 14.8651 18.4724 14.7688 18.2286 14.769H14.9978C14.753 14.769 14.5182 14.8663 14.3451 15.0394C14.172 15.2125 14.0747 15.4473 14.0747 15.6921V18.9229C14.0746 19.0447 14.0986 19.1654 14.1454 19.2778C14.1921 19.3903 14.2606 19.4924 14.347 19.5783L18.5009 23.7322C18.674 23.9039 18.9079 24.0001 19.1517 23.9999C19.3961 23.9989 19.6301 23.9009 19.8025 23.7276L23.0333 20.4968C23.2066 20.3245 23.3045 20.0904 23.3056 19.846C23.3057 19.7242 23.2816 19.6036 23.2349 19.4911C23.1882 19.3786 23.1196 19.2765 23.0333 19.1906ZM19.1517 23.0768L14.9978 18.9229V15.6921H18.2286L22.3825 19.846"/>
</mask>
<path d="M23.0333 19.1906L18.8794 15.0367C18.7063 14.8651 18.4724 14.7688 18.2286 14.769H14.9978C14.753 14.769 14.5182 14.8663 14.3451 15.0394C14.172 15.2125 14.0747 15.4473 14.0747 15.6921V18.9229C14.0746 19.0447 14.0986 19.1654 14.1454 19.2778C14.1921 19.3903 14.2606 19.4924 14.347 19.5783L18.5009 23.7322C18.674 23.9039 18.9079 24.0001 19.1517 23.9999C19.3961 23.9989 19.6301 23.9009 19.8025 23.7276L23.0333 20.4968C23.2066 20.3245 23.3045 20.0904 23.3056 19.846C23.3057 19.7242 23.2816 19.6036 23.2349 19.4911C23.1882 19.3786 23.1196 19.2765 23.0333 19.1906ZM19.1517 23.0768L14.9978 18.9229V15.6921H18.2286L22.3825 19.846" fill="#3F3F46"/>
<path d="M23.0333 19.1906L22.6797 19.5442L22.6808 19.5452L23.0333 19.1906ZM18.8794 15.0367L19.2329 14.6832L19.2315 14.6817L18.8794 15.0367ZM18.2286 14.769L18.2286 15.269L18.229 15.269L18.2286 14.769ZM14.9978 14.769V14.269V14.769ZM14.0747 15.6921H13.5747H14.0747ZM14.0747 18.9229L14.5747 18.9233V18.9229H14.0747ZM14.347 19.5783L14.7006 19.2248L14.6995 19.2237L14.347 19.5783ZM18.5009 23.7322L18.1473 24.0858L18.1488 24.0872L18.5009 23.7322ZM19.1517 23.9999L19.1521 24.4999L19.1538 24.4999L19.1517 23.9999ZM19.8025 23.7276L19.4489 23.374L19.4478 23.3751L19.8025 23.7276ZM23.0333 20.4968L22.6808 20.1422L22.6797 20.1432L23.0333 20.4968ZM23.3056 19.846L23.8056 19.8481L23.8056 19.8464L23.3056 19.846ZM14.9978 18.9229H14.4978V19.13L14.6442 19.2765L14.9978 18.9229ZM14.9978 15.6921V15.1921H14.4978V15.6921H14.9978ZM18.2286 15.6921L18.5821 15.3386L18.4357 15.1921H18.2286V15.6921ZM23.3868 18.8371L19.2329 14.6832L18.5258 15.3903L22.6797 19.5442L23.3868 18.8371ZM19.2315 14.6817C18.9647 14.4171 18.604 14.2687 18.2282 14.269L18.229 15.269C18.3407 15.269 18.4479 15.3131 18.5273 15.3917L19.2315 14.6817ZM18.2286 14.269H14.9978V15.269H18.2286V14.269ZM14.9978 14.269C14.6204 14.269 14.2584 14.419 13.9915 14.6859L14.6986 15.393C14.778 15.3136 14.8856 15.269 14.9978 15.269V14.269ZM13.9915 14.6859C13.7246 14.9527 13.5747 15.3147 13.5747 15.6921H14.5747C14.5747 15.5799 14.6193 15.4723 14.6986 15.393L13.9915 14.6859ZM13.5747 15.6921V18.9229H14.5747V15.6921H13.5747ZM13.5747 18.9225C13.5746 19.1103 13.6116 19.2963 13.6836 19.4697L14.6071 19.086C14.5857 19.0344 14.5747 18.9792 14.5747 18.9233L13.5747 18.9225ZM13.6836 19.4697C13.7557 19.6431 13.8613 19.8005 13.9945 19.9329L14.6995 19.2237C14.6599 19.1844 14.6285 19.1376 14.6071 19.086L13.6836 19.4697ZM13.9935 19.9319L18.1473 24.0858L18.8545 23.3787L14.7006 19.2248L13.9935 19.9319ZM18.1488 24.0872C18.4156 24.3518 18.7763 24.5002 19.1521 24.4999L19.1513 23.4999C19.0396 23.5 18.9323 23.4559 18.853 23.3772L18.1488 24.0872ZM19.1538 24.4999C19.5306 24.4983 19.8914 24.3473 20.1571 24.0801L19.4478 23.3751C19.3689 23.4545 19.2616 23.4994 19.1496 23.4999L19.1538 24.4999ZM20.156 24.0811L23.3868 20.8503L22.6797 20.1432L19.4489 23.374L20.156 24.0811ZM23.3857 20.8514C23.653 20.5857 23.804 20.2249 23.8056 19.8481L22.8056 19.8439C22.8051 19.9559 22.7602 20.0632 22.6808 20.1422L23.3857 20.8514ZM23.8056 19.8464C23.8057 19.6586 23.7687 19.4727 23.6966 19.2993L22.7732 19.6829C22.7946 19.7345 22.8056 19.7898 22.8056 19.8456L23.8056 19.8464ZM23.6966 19.2993C23.6246 19.1258 23.5189 18.9684 23.3858 18.836L22.6808 19.5452C22.7203 19.5846 22.7518 19.6314 22.7732 19.6829L23.6966 19.2993ZM19.5052 22.7233L15.3513 18.5694L14.6442 19.2765L18.7981 23.4304L19.5052 22.7233ZM15.4978 18.9229V15.6921H14.4978V18.9229H15.4978ZM14.9978 16.1921H18.2286V15.1921H14.9978V16.1921ZM17.875 16.0457L22.0289 20.1996L22.736 19.4925L18.5821 15.3386L17.875 16.0457Z" fill="#3F3F46" mask="url(#path-1-outside-1_182_935)"/>
<path fill-rule="evenodd" clip-rule="evenodd" d="M15.6833 1.62219C14.6446 0.58352 13.2359 0 11.767 0C10.2981 0 8.88932 0.58352 7.85065 1.62219C6.81197 2.66087 6.22845 4.06961 6.22845 5.53851C6.22845 7.00742 6.81197 8.41616 7.85065 9.45483C8.88932 10.4935 10.2981 11.077 11.767 11.077C13.2359 11.077 14.6446 10.4935 15.6833 9.45483C16.722 8.41616 17.3055 7.00742 17.3055 5.53851C17.3055 4.06961 16.722 2.66087 15.6833 1.62219ZM9.80881 3.58035C10.3281 3.06102 11.0325 2.76926 11.767 2.76926C12.5014 2.76926 13.2058 3.06102 13.7251 3.58035C14.2445 4.09969 14.5362 4.80406 14.5362 5.53851C14.5362 6.27297 14.2445 6.97734 13.7251 7.49667C13.2058 8.01601 12.5014 8.30777 11.767 8.30777C11.0325 8.30777 10.3281 8.01601 9.80881 7.49667C9.28947 6.97734 8.99771 6.27297 8.99771 5.53851C8.99771 4.80406 9.28947 4.09969 9.80881 3.58035ZM13.0679 12.525C12.6011 12.4828 12.1629 12.4617 11.767 12.4617C8.07001 12.4617 0.689941 14.3032 0.689941 18.0002V22.1541H11.7665C11.1892 21.3855 10.7681 20.4928 10.5504 19.5233H3.32074V18.0002C3.32074 17.1682 7.14045 15.3356 11.0106 15.1144C11.4795 14.0933 12.1896 13.2058 13.0679 12.525Z" fill="#3F3F46"/>
</svg>
