<svg width="24" height="23" viewBox="0 0 24 23" fill="none" xmlns="http://www.w3.org/2000/svg">
<ellipse cx="16.689" cy="3.5677" rx="2.81282" ry="2.8177" fill="#3F3F46"/>
<ellipse cx="5.43807" cy="12.0208" rx="2.81282" ry="2.8177" fill="#3F3F46"/>
<path fill-rule="evenodd" clip-rule="evenodd" d="M16.8229 0C15.9203 0 15.055 0.359189 14.4171 0.998128C13.959 1.45707 13.6452 2.03334 13.5048 2.65626H0.75C0.335786 2.65626 0 2.99204 0 3.40626C0 3.82047 0.335786 4.15626 0.75 4.15626H13.5048C13.6452 4.77917 13.959 5.35544 14.4171 5.81438C15.055 6.45332 15.9203 6.81251 16.8229 6.81251C17.2698 6.81251 17.7123 6.72433 18.1251 6.55305C18.5379 6.38176 18.9129 6.13074 19.2287 5.81438C19.5445 5.49802 19.795 5.12252 19.9658 4.70935C20.04 4.52988 20.0986 4.34483 20.1411 4.15626H23.2526C23.6668 4.15626 24.0026 3.82047 24.0026 3.40626C24.0026 2.99204 23.6668 2.65626 23.2526 2.65626H20.1411C20.0986 2.46768 20.04 2.28263 19.9658 2.10316C19.795 1.68999 19.5445 1.31449 19.2287 0.998128C18.9129 0.681767 18.5379 0.430746 18.1251 0.259462C17.7123 0.0881762 17.2698 0 16.8229 0ZM15.4787 2.05787C15.8355 1.70052 16.319 1.5 16.8229 1.5C17.0725 1.5 17.3196 1.54924 17.5502 1.64493C17.7809 1.74062 17.9905 1.88092 18.1672 2.05787C18.3438 2.23482 18.484 2.44497 18.5797 2.67634C18.6753 2.90771 18.7246 3.15574 18.7246 3.40626C18.7246 3.65677 18.6753 3.9048 18.5797 4.13617C18.484 4.36754 18.3438 4.57769 18.1672 4.75464C17.9905 4.93159 17.7809 5.07189 17.5502 5.16758C17.3196 5.26327 17.0725 5.31251 16.8229 5.31251C16.319 5.31251 15.8355 5.11199 15.4787 4.75464C15.1219 4.39725 14.9213 3.91224 14.9213 3.40626C14.9213 2.90027 15.1219 2.41526 15.4787 2.05787ZM5.57164 8.0504C4.66904 8.0504 3.80368 8.40959 3.16584 9.04853C2.70769 9.50747 2.39388 10.0837 2.25345 10.7067H0.75C0.335786 10.7067 0 11.0424 0 11.4567C0 11.8709 0.335786 12.2067 0.75 12.2067H2.25345C2.39388 12.8296 2.70769 13.4058 3.16584 13.8648C3.80368 14.5037 4.66904 14.8629 5.57164 14.8629C6.47423 14.8629 7.3396 14.5037 7.97743 13.8648C8.43558 13.4058 8.74939 12.8296 8.88983 12.2067H9.89162V10.7067H8.88983C8.74939 10.0837 8.43558 9.50747 7.97743 9.04853C7.3396 8.40959 6.47423 8.0504 5.57164 8.0504ZM9.89162 18.7571V20.2571H0.75C0.335786 20.2571 0 19.9213 0 19.5071C0 19.0928 0.335786 18.7571 0.75 18.7571H9.89162ZM4.22742 10.1083C4.58415 9.75092 5.06771 9.5504 5.57164 9.5504C6.07557 9.5504 6.55912 9.75092 6.91585 10.1083C7.27263 10.4657 7.4733 10.9507 7.4733 11.4567C7.4733 11.9626 7.27263 12.4477 6.91585 12.805C6.55912 13.1624 6.07557 13.3629 5.57164 13.3629C5.06771 13.3629 4.58415 13.1624 4.22742 12.805C3.87065 12.4476 3.66998 11.9626 3.66998 11.4567C3.66998 10.9507 3.87065 10.4657 4.22742 10.1083Z" fill="#3F3F46"/>
<path d="M18.33 8.78027C19.076 8.78027 19.7915 9.07714 20.319 9.60556C20.8465 10.134 21.1428 10.8507 21.1428 11.598C21.1428 12.3453 20.8465 13.062 20.319 13.5904C19.7915 14.1188 19.076 14.4157 18.33 14.4157C17.584 14.4157 16.8685 14.1188 16.341 13.5904C15.8135 13.062 15.5172 12.3453 15.5172 11.598C15.5172 10.8507 15.8135 10.134 16.341 9.60556C16.8685 9.07714 17.584 8.78027 18.33 8.78027ZM18.33 15.8245C21.4382 15.8245 23.9556 17.0854 23.9556 18.6422V20.0511H12.7043V18.6422C12.7043 17.0854 15.2218 15.8245 18.33 15.8245Z" fill="#3F3F46"/>
</svg>
