<svg width="25" height="24" viewBox="0 0 25 24" fill="none" xmlns="http://www.w3.org/2000/svg">
<path d="M19.3174 9.84766C20.0568 9.84766 20.766 10.142 21.2889 10.666C21.8117 11.19 22.1055 11.9007 22.1055 12.6417C22.1055 13.3827 21.8117 14.0934 21.2889 14.6174C20.766 15.1414 20.0568 15.4358 19.3174 15.4358C18.5779 15.4358 17.8688 15.1414 17.3459 14.6174C16.823 14.0934 16.5293 13.3827 16.5293 12.6417C16.5293 11.9007 16.823 11.19 17.3459 10.666C17.8688 10.142 18.5779 9.84766 19.3174 9.84766ZM19.3174 11.2447C18.9477 11.2447 18.5931 11.3919 18.3317 11.6539C18.0702 11.9159 17.9233 12.2712 17.9233 12.6417C17.9233 13.0122 18.0702 13.3676 18.3317 13.6296C18.5931 13.8916 18.9477 14.0387 19.3174 14.0387C19.6871 14.0387 20.0417 13.8916 20.3031 13.6296C20.5646 13.3676 20.7114 13.0122 20.7114 12.6417C20.7114 12.2712 20.5646 11.9159 20.3031 11.6539C20.0417 11.3919 19.6871 11.2447 19.3174 11.2447ZM19.3174 16.1343C21.1784 16.1343 24.8936 17.0633 24.8936 18.9284V21.0239H13.7412V18.9284C13.7412 17.0633 17.4563 16.1343 19.3174 16.1343ZM19.3174 17.4615C17.2472 17.4615 15.0656 18.4813 15.0656 18.9284V19.6967H23.5692V18.9284C23.5692 18.4813 21.3876 17.4615 19.3174 17.4615Z" fill="#3F3F46"/>
<path fill-rule="evenodd" clip-rule="evenodd" d="M17.7684 0.94873C16.8658 0.94873 16.0004 1.30808 15.3627 1.94721C14.9045 2.40631 14.5908 2.98274 14.4504 3.6058H1.69702C1.28281 3.6058 0.947021 3.94159 0.947021 4.3558C0.947021 4.77002 1.28281 5.1058 1.69702 5.1058H14.4504C14.5908 5.72887 14.9045 6.3053 15.3627 6.7644C16.0004 7.40353 16.8658 7.76288 17.7684 7.76288C18.2153 7.76288 18.6578 7.67467 19.0706 7.50331C19.4834 7.33196 19.8583 7.08085 20.1741 6.7644C20.4899 6.44796 20.7403 6.07236 20.9111 5.65911C20.9853 5.47957 21.0438 5.29445 21.0863 5.1058H24.1974C24.6116 5.1058 24.9474 4.77002 24.9474 4.3558C24.9474 3.94159 24.6116 3.6058 24.1974 3.6058H21.0863C21.0438 3.41716 20.9853 3.23204 20.9111 3.0525C20.7403 2.63925 20.4899 2.26365 20.1741 1.94721C19.8583 1.63076 19.4834 1.37965 19.0706 1.2083C18.6578 1.03694 18.2153 0.94873 17.7684 0.94873ZM16.4245 3.00673C16.7812 2.64926 17.2646 2.44873 17.7684 2.44873C18.0179 2.44873 18.2649 2.49797 18.4955 2.59368C18.7261 2.68939 18.9357 2.82972 19.1123 3.00673C19.2889 3.18375 19.4291 3.39399 19.5248 3.62548C19.6205 3.85697 19.6698 4.10514 19.6698 4.3558C19.6698 4.60647 19.6205 4.85464 19.5248 5.08613C19.4291 5.31762 19.2889 5.52786 19.1123 5.70488C18.9357 5.88189 18.7261 6.02222 18.4955 6.11793C18.2649 6.21364 18.0179 6.26288 17.7684 6.26288C17.2646 6.26288 16.7812 6.06235 16.4245 5.70488C16.0677 5.34735 15.867 4.86211 15.867 4.3558C15.867 3.8495 16.0677 3.36426 16.4245 3.00673ZM6.51819 9.00161C5.61556 9.00161 4.75023 9.36096 4.11247 10.0001C3.65435 10.4592 3.3406 11.0356 3.20021 11.6587H1.69702C1.28281 11.6587 0.947021 11.9945 0.947021 12.4087C0.947021 12.8229 1.28281 13.1587 1.69702 13.1587H3.20021C3.3406 13.7818 3.65435 14.3582 4.11247 14.8173C4.75023 15.4564 5.61556 15.8158 6.51819 15.8158C7.42081 15.8158 8.28614 15.4564 8.9239 14.8173C9.38202 14.3582 9.69578 13.7818 9.83616 13.1587H10.9531V11.6587H9.83616C9.69578 11.0356 9.38202 10.4592 8.9239 10.0001C8.28614 9.36096 7.42081 9.00161 6.51819 9.00161ZM10.9531 19.7116V21.2116H1.69702C1.28281 21.2116 0.947021 20.8758 0.947021 20.4616C0.947021 20.0474 1.28281 19.7116 1.69702 19.7116H10.9531ZM5.17426 11.0596C5.53097 10.7021 6.01442 10.5016 6.51819 10.5016C7.02195 10.5016 7.50541 10.7021 7.86211 11.0596C8.21887 11.4171 8.41958 11.9024 8.41958 12.4087C8.41958 12.915 8.21887 13.4002 7.86211 13.7578C7.50541 14.1152 7.02195 14.3158 6.51819 14.3158C6.01442 14.3158 5.53097 14.1152 5.17426 13.7578C4.8175 13.4002 4.61679 12.915 4.61679 12.4087C4.61679 11.9024 4.8175 11.4171 5.17426 11.0596Z" fill="#3F3F46"/>
</svg>
