<svg width="25" height="21" viewBox="0 0 25 21" fill="none" xmlns="http://www.w3.org/2000/svg">
<path d="M18.8529 9.44141C19.6017 9.44141 20.3199 9.73888 20.8494 10.2684C21.3789 10.7979 21.6764 11.5161 21.6764 12.2649C21.6764 13.0138 21.3789 13.732 20.8494 14.2615C20.3199 14.791 19.6017 15.0885 18.8529 15.0885C18.104 15.0885 17.3858 14.791 16.8563 14.2615C16.3268 13.732 16.0293 13.0138 16.0293 12.2649C16.0293 11.5161 16.3268 10.7979 16.8563 10.2684C17.3858 9.73888 18.104 9.44141 18.8529 9.44141ZM18.8529 16.5002C21.9729 16.5002 24.4999 17.7638 24.4999 19.3238V20.7355H13.2058V19.3238C13.2058 17.7638 15.7329 16.5002 18.8529 16.5002Z" fill="#3F3F46"/>
<circle cx="17.2059" cy="4.02958" r="2.82353" fill="#3F3F46"/>
<circle cx="5.91166" cy="11.5589" r="2.82353" fill="#3F3F46"/>
<path fill-rule="evenodd" clip-rule="evenodd" d="M17.3399 0.456055C16.4351 0.456055 15.5673 0.815506 14.9274 1.45533C14.4675 1.91531 14.1524 2.49311 14.0116 3.1178H1.20581C0.791597 3.1178 0.455811 3.45359 0.455811 3.8678C0.455811 4.28202 0.791597 4.6178 1.20581 4.6178H14.0116C14.1524 5.24249 14.4675 5.82029 14.9274 6.28027C15.5673 6.9201 16.4351 7.27955 17.3399 7.27955C17.788 7.27955 18.2316 7.19131 18.6455 7.01985C19.0595 6.84839 19.4356 6.59708 19.7524 6.28027C20.0692 5.96346 20.3205 5.58736 20.492 5.17342C20.5666 4.99316 20.6255 4.80725 20.6682 4.6178H23.794C24.2083 4.6178 24.544 4.28202 24.544 3.8678C24.544 3.45359 24.2083 3.1178 23.794 3.1178H20.6682C20.6255 2.92836 20.5666 2.74245 20.492 2.56218C20.3205 2.14825 20.0692 1.77214 19.7524 1.45533C19.4356 1.13852 19.0595 0.887215 18.6455 0.715759C18.2316 0.544302 17.788 0.456055 17.3399 0.456055ZM15.9881 2.51599C16.3466 2.15747 16.8329 1.95605 17.3399 1.95605C17.591 1.95605 17.8396 2.0055 18.0715 2.10158C18.3035 2.19765 18.5142 2.33847 18.6917 2.51599C18.8692 2.69352 19.0101 2.90426 19.1061 3.13621C19.2022 3.36815 19.2517 3.61675 19.2517 3.8678C19.2517 4.11886 19.2022 4.36746 19.1061 4.5994C19.0101 4.83134 18.8693 5.04209 18.6917 5.21961C18.5142 5.39714 18.3035 5.53795 18.0715 5.63403C17.8396 5.7301 17.591 5.77955 17.3399 5.77955C16.8329 5.77955 16.3466 5.57814 15.9881 5.21961C15.6296 4.86109 15.4282 4.37483 15.4282 3.8678C15.4282 3.36078 15.6296 2.87451 15.9881 2.51599ZM6.0458 8.52311C5.14095 8.52311 4.27315 8.88256 3.63333 9.52238C3.17335 9.98236 2.85827 10.5602 2.71749 11.1849H1.20581C0.791597 11.1849 0.455811 11.5206 0.455811 11.9349C0.455811 12.3491 0.791597 12.6849 1.20581 12.6849H2.71749C2.85828 13.3095 3.17335 13.8873 3.63333 14.3473C4.27315 14.9872 5.14095 15.3466 6.0458 15.3466C6.95065 15.3466 7.81844 14.9872 8.45827 14.3473C8.91825 13.8873 9.23332 13.3095 9.3741 12.6849H10.7066C10.9789 12.1536 11.3001 11.6516 11.6644 11.1849H9.3741C9.23332 10.5602 8.91825 9.98237 8.45827 9.52238C7.81844 8.88256 6.95065 8.52311 6.0458 8.52311ZM9.95474 19.2519C10.0838 19.7702 10.2558 20.2716 10.4667 20.7519H1.20581C0.791597 20.7519 0.455811 20.4161 0.455811 20.0019C0.455811 19.5877 0.791597 19.2519 1.20581 19.2519H9.95474ZM4.69399 10.583C5.05251 10.2245 5.53877 10.0231 6.0458 10.0231C6.55283 10.0231 7.03909 10.2245 7.39761 10.583C7.75613 10.9416 7.95755 11.4278 7.95755 11.9349C7.95755 12.4419 7.75613 12.9281 7.39761 13.2867C7.03909 13.6452 6.55283 13.8466 6.0458 13.8466C5.53877 13.8466 5.05251 13.6452 4.69399 13.2867C4.33546 12.9281 4.13405 12.4419 4.13405 11.9349C4.13405 11.4278 4.33546 10.9416 4.69399 10.583Z" fill="#3F3F46"/>
</svg>
