<svg width="24" height="24" viewBox="0 0 24 24" fill="none" xmlns="http://www.w3.org/2000/svg">
<path fill-rule="evenodd" clip-rule="evenodd" d="M14.8284 5.17157C14.0783 4.42143 13.0609 4 12 4C10.9391 4 9.92172 4.42143 9.17157 5.17157C8.42143 5.92172 8 6.93913 8 8C8 9.06087 8.42143 10.0783 9.17157 10.8284C9.92172 11.5786 10.9391 12 12 12C13.0609 12 14.0783 11.5786 14.8284 10.8284C15.5786 10.0783 16 9.06087 16 8C16 6.93913 15.5786 5.92172 14.8284 5.17157ZM11.9996 20C11.3719 19.1643 11 18.1256 11 17C11 15.8744 11.372 14.8357 11.9996 14C7.57981 14.0001 4 15.7901 4 18V20H11.9996Z" fill="#3F3F46"/>
<path d="M19.5826 18.1014L16.3951 14.9139C16.2623 14.7822 16.0828 14.7083 15.8958 14.7085H13.4166C13.2287 14.7085 13.0486 14.7831 12.9157 14.916C12.7829 15.0488 12.7083 15.229 12.7083 15.4168V17.896C12.7082 17.9895 12.7266 18.082 12.7625 18.1683C12.7983 18.2547 12.8509 18.333 12.9172 18.3989L16.1047 21.5864C16.2375 21.7181 16.417 21.792 16.6041 21.7918C16.7916 21.791 16.9712 21.7159 17.1035 21.5829L19.5826 19.1037C19.7156 18.9715 19.7908 18.7919 19.7916 18.6043C19.7917 18.5109 19.7732 18.4183 19.7374 18.332C19.7015 18.2457 19.6489 18.1673 19.5826 18.1014ZM16.6041 21.0835L13.4166 17.896V15.4168H15.8958L19.0833 18.6043M14.302 15.771C14.4071 15.771 14.5098 15.8022 14.5971 15.8605C14.6845 15.9189 14.7526 16.0019 14.7928 16.0989C14.833 16.196 14.8435 16.3028 14.823 16.4059C14.8025 16.5089 14.7519 16.6036 14.6777 16.6779C14.6034 16.7522 14.5087 16.8028 14.4056 16.8233C14.3026 16.8438 14.1958 16.8333 14.0987 16.7931C14.0016 16.7528 13.9187 16.6848 13.8603 16.5974C13.8019 16.51 13.7708 16.4073 13.7708 16.3022C13.7708 16.1614 13.8267 16.0262 13.9264 15.9266C14.026 15.827 14.1611 15.771 14.302 15.771Z" fill="#3F3F46"/>
<path d="M15.8958 15.0625L19.2963 18.5558L16.5134 21.2647L13.113 17.7713L15.8958 15.0625Z" fill="#3F3F46"/>
<path d="M13.0625 15.0625H15.9169V17.8419H13.0625V15.0625Z" fill="#3F3F46"/>
</svg>
