<svg width="24" height="24" viewBox="0 0 24 24" fill="none" xmlns="http://www.w3.org/2000/svg">
<path d="M15.9571 1.58039C14.9452 0.568483 13.5727 0 12.1417 0C10.7106 0 9.33818 0.568483 8.32627 1.58039C7.31437 2.59229 6.74588 3.96473 6.74588 5.39578C6.74588 6.82684 7.31437 8.19928 8.32627 9.21118C9.33818 10.2231 10.7106 10.7916 12.1417 10.7916C13.5727 10.7916 14.9452 10.2231 15.9571 9.21118C16.969 8.19928 17.5375 6.82684 17.5375 5.39578C17.5375 3.96473 16.969 2.59229 15.9571 1.58039Z" fill="#3F3F46"/>
<path d="M12.1412 21.5831C11.2945 20.4559 10.7927 19.0547 10.7927 17.5363C10.7927 16.0179 11.2945 14.6167 12.1412 13.4895C6.17906 13.4896 1.3501 15.9042 1.3501 18.8852V21.5831H12.1412Z" fill="#3F3F46"/>
<path d="M22.3703 19.0218L18.0706 14.7221C17.8914 14.5444 17.6493 14.4448 17.3969 14.445H14.0527C13.7993 14.445 13.5562 14.5456 13.377 14.7248C13.1978 14.904 13.0972 15.1471 13.0972 15.4005V18.7447C13.0971 18.8708 13.1219 18.9957 13.1703 19.1121C13.2187 19.2285 13.2896 19.3343 13.379 19.4231L17.6788 23.7229C17.858 23.9006 18.1001 24.0002 18.3524 24C18.6054 23.9989 18.8477 23.8976 19.0261 23.7181L22.3703 20.3739C22.5498 20.1955 22.6511 19.9532 22.6522 19.7002C22.6523 19.5742 22.6275 19.4493 22.5791 19.3329C22.5307 19.2164 22.4598 19.1107 22.3703 19.0218ZM18.3524 23.0445L14.0527 18.7447V15.4005H17.3969L21.6967 19.7002M15.2471 15.8782C15.3888 15.8782 15.5273 15.9203 15.6452 15.999C15.763 16.0777 15.8549 16.1897 15.9091 16.3206C15.9634 16.4516 15.9776 16.5956 15.9499 16.7347C15.9223 16.8737 15.854 17.0014 15.7538 17.1016C15.6536 17.2018 15.5259 17.2701 15.3869 17.2977C15.2478 17.3254 15.1038 17.3112 14.9728 17.2569C14.8419 17.2027 14.7299 17.1108 14.6512 16.993C14.5725 16.8751 14.5304 16.7366 14.5304 16.5948C14.5304 16.4048 14.6059 16.2225 14.7403 16.0881C14.8747 15.9537 15.057 15.8782 15.2471 15.8782Z" fill="#3F3F46"/>
<path d="M17.3969 14.9227L21.9839 19.635L18.2301 23.2891L13.6431 18.5768L17.3969 14.9227Z" fill="#3F3F46"/>
<path d="M13.5749 14.9227H17.4254V18.6719H13.5749V14.9227Z" fill="#3F3F46"/>
</svg>
