<svg width="24" height="24" viewBox="0 0 24 24" fill="none" xmlns="http://www.w3.org/2000/svg">
<mask id="path-1-outside-1_150_630" maskUnits="userSpaceOnUse" x="12.4668" y="12.9663" width="9" height="9" fill="black">
<rect fill="white" x="12.4668" y="12.9663" width="9" height="9"/>
<path d="M19.9368 17.1596L16.9368 14.1596C16.8118 14.0357 16.6428 13.9662 16.4668 13.9663H14.1335C13.9567 13.9663 13.7871 14.0365 13.6621 14.1616C13.537 14.2866 13.4668 14.4562 13.4668 14.633V16.9663C13.4667 17.0543 13.4841 17.1414 13.5178 17.2226C13.5516 17.3039 13.6011 17.3776 13.6635 17.4396L16.6635 20.4396C16.7885 20.5636 16.9574 20.6331 17.1335 20.633C17.31 20.6322 17.479 20.5615 17.6035 20.4363L19.9368 18.103C20.062 17.9785 20.1327 17.8095 20.1335 17.633C20.1335 17.545 20.1162 17.4579 20.0824 17.3767C20.0487 17.2954 19.9992 17.2217 19.9368 17.1596ZM17.1335 19.9663L14.1335 16.9663V14.633H16.4668L19.4668 17.633"/>
</mask>
<path d="M19.9368 17.1596L16.9368 14.1596C16.8118 14.0357 16.6428 13.9662 16.4668 13.9663H14.1335C13.9567 13.9663 13.7871 14.0365 13.6621 14.1616C13.537 14.2866 13.4668 14.4562 13.4668 14.633V16.9663C13.4667 17.0543 13.4841 17.1414 13.5178 17.2226C13.5516 17.3039 13.6011 17.3776 13.6635 17.4396L16.6635 20.4396C16.7885 20.5636 16.9574 20.6331 17.1335 20.633C17.31 20.6322 17.479 20.5615 17.6035 20.4363L19.9368 18.103C20.062 17.9785 20.1327 17.8095 20.1335 17.633C20.1335 17.545 20.1162 17.4579 20.0824 17.3767C20.0487 17.2954 19.9992 17.2217 19.9368 17.1596ZM17.1335 19.9663L14.1335 16.9663V14.633H16.4668L19.4668 17.633" fill="#3F3F46"/>
<path d="M19.9368 17.1596L19.5832 17.5132L19.5843 17.5142L19.9368 17.1596ZM16.9368 14.1596L17.2904 13.8061L17.2889 13.8046L16.9368 14.1596ZM16.4668 13.9663L16.4668 14.4663L16.4672 14.4663L16.4668 13.9663ZM14.1335 13.9663V13.4663V13.9663ZM13.4668 14.633H12.9668H13.4668ZM13.4668 16.9663L13.9668 16.9667V16.9663H13.4668ZM13.6635 17.4396L14.017 17.0861L14.016 17.085L13.6635 17.4396ZM16.6635 20.4396L16.3099 20.7932L16.3114 20.7946L16.6635 20.4396ZM17.1335 20.633L17.1339 21.133L17.1356 21.133L17.1335 20.633ZM17.6035 20.4363L17.2499 20.0828L17.2489 20.0838L17.6035 20.4363ZM19.9368 18.103L19.5843 17.7484L19.5832 17.7494L19.9368 18.103ZM20.1335 17.633L20.6335 17.6351L20.6335 17.6334L20.1335 17.633ZM14.1335 16.9663H13.6335V17.1734L13.7799 17.3199L14.1335 16.9663ZM14.1335 14.633V14.133H13.6335V14.633H14.1335ZM16.4668 14.633L16.8204 14.2794L16.6739 14.133H16.4668V14.633ZM20.2904 16.8061L17.2904 13.8061L16.5832 14.5132L19.5832 17.5132L20.2904 16.8061ZM17.2889 13.8046C17.0702 13.5877 16.7745 13.4661 16.4664 13.4663L16.4672 14.4663C16.5112 14.4663 16.5534 14.4836 16.5847 14.5146L17.2889 13.8046ZM16.4668 13.4663H14.1335V14.4663H16.4668V13.4663ZM14.1335 13.4663C13.824 13.4663 13.5273 13.5892 13.3085 13.808L14.0156 14.5151C14.0469 14.4839 14.0893 14.4663 14.1335 14.4663V13.4663ZM13.3085 13.808C13.0897 14.0268 12.9668 14.3236 12.9668 14.633H13.9668C13.9668 14.5888 13.9844 14.5464 14.0156 14.5151L13.3085 13.808ZM12.9668 14.633V16.9663H13.9668V14.633H12.9668ZM12.9668 16.9659C12.9667 17.1199 12.997 17.2723 13.0561 17.4145L13.9796 17.0308C13.9711 17.0105 13.9668 16.9887 13.9668 16.9667L12.9668 16.9659ZM13.0561 17.4145C13.1152 17.5566 13.2018 17.6857 13.311 17.7942L14.016 17.085C14.0004 17.0695 13.988 17.0511 13.9796 17.0308L13.0561 17.4145ZM13.3099 17.7932L16.3099 20.7932L17.017 20.0861L14.017 17.0861L13.3099 17.7932ZM16.3114 20.7946C16.5301 21.0116 16.8258 21.1332 17.1339 21.133L17.1331 20.133C17.0891 20.133 17.0468 20.1156 17.0156 20.0846L16.3114 20.7946ZM17.1356 21.133C17.4445 21.1317 17.7403 21.0079 17.9581 20.7888L17.2489 20.0838C17.2177 20.1151 17.1755 20.1328 17.1314 20.133L17.1356 21.133ZM17.957 20.7899L20.2904 18.4565L19.5832 17.7494L17.2499 20.0828L17.957 20.7899ZM20.2893 18.4576C20.5084 18.2398 20.6322 17.944 20.6335 17.6351L19.6335 17.6309C19.6333 17.675 19.6156 17.7173 19.5843 17.7484L20.2893 18.4576ZM20.6335 17.6334C20.6336 17.4794 20.6032 17.327 20.5442 17.1848L19.6207 17.5685C19.6291 17.5888 19.6335 17.6106 19.6335 17.6326L20.6335 17.6334ZM20.5442 17.1848C20.4851 17.0426 20.3985 16.9136 20.2893 16.805L19.5843 17.5142C19.5999 17.5298 19.6123 17.5482 19.6207 17.5685L20.5442 17.1848ZM17.487 19.6128L14.487 16.6128L13.7799 17.3199L16.7799 20.3199L17.487 19.6128ZM14.6335 16.9663V14.633H13.6335V16.9663H14.6335ZM14.1335 15.133H16.4668V14.133H14.1335V15.133ZM16.1132 14.9865L19.1132 17.9865L19.8204 17.2794L16.8204 14.2794L16.1132 14.9865Z" fill="#3F3F46" mask="url(#path-1-outside-1_150_630)"/>
<path fill-rule="evenodd" clip-rule="evenodd" d="M14.6285 4.47138C13.8783 3.72123 12.8609 3.2998 11.8 3.2998C10.7392 3.2998 9.72177 3.72123 8.97162 4.47138C8.22148 5.22152 7.80005 6.23894 7.80005 7.2998C7.80005 8.36067 8.22148 9.37809 8.97162 10.1282C9.72177 10.8784 10.7392 11.2998 11.8 11.2998C12.8609 11.2998 13.8783 10.8784 14.6285 10.1282C15.3786 9.37809 15.8 8.36067 15.8 7.2998C15.8 6.23894 15.3786 5.22152 14.6285 4.47138ZM10.3858 5.88559C10.7609 5.51052 11.2696 5.2998 11.8 5.2998C12.3305 5.2998 12.8392 5.51052 13.2143 5.88559C13.5893 6.26066 13.8 6.76937 13.8 7.2998C13.8 7.83024 13.5893 8.33894 13.2143 8.71402C12.8392 9.08909 12.3305 9.2998 11.8 9.2998C11.2696 9.2998 10.7609 9.08909 10.3858 8.71402C10.0108 8.33894 9.80005 7.83024 9.80005 7.2998C9.80005 6.76937 10.0108 6.26066 10.3858 5.88559ZM12.7396 12.3456C12.4024 12.3151 12.086 12.2998 11.8 12.2998C9.13005 12.2998 3.80005 13.6298 3.80005 16.2998V19.2998H11.7997C11.3827 18.7447 11.0786 18.1 10.9214 17.3998H5.70005V16.2998C5.70005 15.699 8.4587 14.3754 11.2538 14.2157C11.5924 13.4782 12.1053 12.8372 12.7396 12.3456Z" fill="#3F3F46"/>
</svg>
